<svg viewBox="0 0 419 450" fill="none" xmlns="http://www.w3.org/2000/svg">
<path d="M39.6767 0C12.1067 29.24 -1.47334 67.7 0.126657 104.6C2.00666 147.7 24.0267 188.4 69.1267 210.9L74.1267 213.4V219C74.1267 264 97.2267 319.1 126.627 364.2C141.227 386.7 157.427 406.8 172.627 422C186.527 435.8 199.727 445.2 209.127 449.2C218.527 445.2 231.627 435.8 245.527 421.9C260.727 406.7 276.927 386.6 291.627 364.1C320.927 319 344.127 264 344.127 219V213.4L349.127 210.9C394.227 188.4 416.227 147.7 418.127 104.6C419.727 67.7 406.127 29.24 378.627 0C379.527 28.55 381.527 50.9 378.027 70.6C373.527 95 358.527 114.4 325.127 131.1L320.227 133.5L315.727 130.2C313.627 128.6 311.527 127.2 309.427 125.7C306.127 132.7 301.527 139.3 295.527 145.4C284.327 156.5 268.127 156.3 255.827 151.4C243.527 146.4 232.127 137 232.127 123V119.3L234.727 116.6C240.727 110.6 245.427 105.4 249.327 100.4C223.027 94.7 195.327 94.7 168.927 100.4C172.827 105.4 177.527 110.6 183.527 116.6L186.127 119.3V123C186.127 137 174.727 146.4 162.427 151.4C150.127 156.3 133.927 156.5 122.727 145.4C116.727 139.3 112.127 132.7 108.827 125.7C106.727 127.1 104.627 128.6 102.527 130.2L98.0266 133.5L93.1267 131.1C59.7267 114.4 44.7067 95 40.2767 70.6C36.6967 50.9 38.7367 28.55 39.6767 0ZM127.827 52.71C124.127 62.86 121.127 73.5 120.127 83.9C118.227 102.1 121.627 118.8 135.527 132.6C140.327 137.5 148.127 137.7 155.827 134.6C161.427 132.4 165.427 128.3 167.127 125.4C153.027 110.7 144.727 98.3 138.827 84.5C134.827 75.2 131.527 64.6 127.827 52.71ZM290.427 52.71C286.727 64.57 283.427 75.2 279.427 84.5C273.527 98.3 265.227 110.7 251.127 125.4C252.827 128.3 256.827 132.4 262.427 134.6C270.127 137.7 277.927 137.5 282.727 132.6C296.627 118.8 300.027 102.1 298.127 83.9C297.127 73.5 294.127 62.86 290.427 52.71ZM110.327 161.2L121.227 183C132.327 205.2 152.527 228.3 174.527 244.7L152.727 190.3L169.527 183.7L200.227 260.5L202.127 261.4V262.3H216.127V261.4L218.027 260.5L248.727 183.7L265.527 190.3L243.727 244.7C265.727 228.3 285.927 205.2 297.027 183L307.927 161.2L330.127 249.9V251C330.127 257.2 327.527 263.1 323.827 267.4C320.027 271.8 315.227 274.9 309.927 277.4C299.427 282.4 286.627 284.9 273.827 286C271.727 286.2 269.727 286.3 267.727 286.4L250.727 320.3C260.427 316.7 271.827 312.2 285.827 306.6L298.127 301.7V315C298.127 335.5 284.527 356.3 267.527 373.4C250.427 390.4 229.627 404 209.127 404C188.627 404 167.827 390.4 150.727 373.4C133.727 356.3 120.127 335.5 120.127 315V301.7L132.427 306.6C146.427 312.2 157.827 316.7 167.527 320.3L150.527 286.4C148.527 286.3 146.527 286.2 144.427 286C131.627 284.9 118.827 282.4 108.327 277.4C103.027 274.9 98.2267 271.8 94.4267 267.4C90.7267 263.1 88.1267 257.2 88.1267 251V249.9L110.327 161.2ZM116.627 210.2L106.227 251.7C106.327 253 106.727 254.2 108.027 255.6C109.527 257.4 112.227 259.4 115.927 261.1C123.427 264.6 134.627 267.1 145.827 268C156.627 268.9 167.327 268.5 175.127 267.1C152.627 252.9 131.727 232.5 116.627 210.2ZM301.627 210.2C286.527 232.5 265.627 252.9 243.127 267.1C250.927 268.5 261.627 268.9 272.427 268C283.627 267.1 294.827 264.6 302.327 261.1C306.027 259.4 308.727 257.4 310.227 255.6C311.527 254.2 311.927 253 312.027 251.7L301.627 210.2ZM195.227 280.3L173.227 291.3L209.127 363.2L245.027 291.3L223.027 280.3H195.227ZM141.927 329.7C146.227 339.7 153.927 351 163.527 360.6C174.827 371.9 188.527 380.7 199.527 384.2L178.927 343.1C168.327 340 156.427 335.5 141.927 329.7ZM276.327 329.7C261.827 335.5 249.927 340 239.327 343.1L218.727 384.2C229.727 380.7 243.427 371.9 254.727 360.6C264.327 351 272.027 339.7 276.327 329.7Z" fill="white" stroke="#261B40" stroke-width="2"/>
</svg>
